<svg aria-hidden="true" style="position: absolute; width: 0; height: 0; overflow: hidden;" version="1.1" xmlns="http://www.w3.org/2000/svg" xmlns:xlink="http://www.w3.org/1999/xlink">
<defs>
<symbol id="icon-phone-24" viewBox="0 0 20 24">
<path fill="#f3c653" style="fill: var(--color1, #f3c653)" d="M13.125 1.667c0.497 0 0.974 0.198 1.326 0.549s0.549 0.829 0.549 1.326v12.917c0 0.497-0.198 0.974-0.549 1.326s-0.829 0.549-1.326 0.549h-6.25c-0.497 0-0.974-0.198-1.326-0.549s-0.549-0.829-0.549-1.326v-12.917c0-0.497 0.198-0.974 0.549-1.326s0.829-0.549 1.326-0.549h6.25zM13.125 2.917h-6.25c-0.166 0-0.325 0.066-0.442 0.183s-0.183 0.276-0.183 0.442v12.917c0 0.345 0.28 0.625 0.625 0.625h6.25c0.166 0 0.325-0.066 0.442-0.183s0.183-0.276 0.183-0.442v-12.917c0-0.166-0.066-0.325-0.183-0.442s-0.276-0.183-0.442-0.183zM11.041 14.583c0.166-0 0.325 0.065 0.442 0.183s0.183 0.276 0.184 0.442-0.065 0.325-0.183 0.442c-0.117 0.117-0.276 0.183-0.442 0.184l-2.083 0.003c-0.166 0-0.325-0.065-0.442-0.183s-0.183-0.276-0.184-0.442c-0-0.166 0.065-0.325 0.182-0.442s0.276-0.183 0.442-0.184l2.083-0.003z"></path>
</symbol>
<symbol id="icon-location-pin" viewBox="0 0 20 24">
<path fill="#f3c653" style="fill: var(--color1, #f3c653)" d="M10 2.009c-2.762 0-5 2.229-5 4.99 0 4.774 5 11 5 11s5-6.227 5-11c0-2.76-2.238-4.99-5-4.99zM10 9.76c-0.716 0-1.403-0.284-1.909-0.791s-0.791-1.193-0.791-1.909c0-0.716 0.284-1.403 0.791-1.909s1.193-0.791 1.909-0.791c0.716 0 1.403 0.284 1.909 0.791s0.791 1.193 0.791 1.909-0.284 1.403-0.791 1.909c-0.506 0.506-1.193 0.791-1.909 0.791z"></path>
</symbol>
<symbol id="icon-Vector-4" viewBox="0 0 20 32">
<path fill="#f3c653" style="fill: var(--color1, #f3c653)" d="M10 0.018c-5.524 0-10 4.458-10 9.98 0 9.548 10 22 10 22s10-12.454 10-22c0-5.52-4.476-9.98-10-9.98v0zM10 15.52c-1.432 0-2.806-0.569-3.818-1.582s-1.582-2.386-1.582-3.818c0-1.432 0.569-2.806 1.582-3.818s2.386-1.582 3.818-1.582c1.432 0 2.806 0.569 3.818 1.582s1.582 2.386 1.582 3.818c0 1.432-0.569 2.806-1.582 3.818s-2.386 1.582-3.818 1.582z"></path>
</symbol>
<symbol id="icon-menu" viewBox="0 0 20 20">
<path d="M0 3h20v2h-20v-2zM0 9h20v2h-20v-2zM0 15h20v2h-20v-2z"></path>
</symbol>
<symbol id="icon-Vector-2" viewBox="0 0 19 32">
<path fill="#f3c653" style="fill: var(--color1, #f3c653)" d="M15.6 0c0.955 0 1.87 0.379 2.546 1.054s1.054 1.591 1.054 2.546v24.8c0 0.955-0.379 1.87-1.054 2.546s-1.591 1.054-2.546 1.054h-12c-0.955 0-1.87-0.379-2.546-1.054s-1.054-1.591-1.054-2.546v-24.8c0-0.955 0.379-1.87 1.054-2.546s1.591-1.054 2.546-1.054h12zM15.6 2.4h-12c-0.318 0-0.623 0.126-0.849 0.351s-0.351 0.53-0.351 0.849v24.8c0 0.662 0.538 1.2 1.2 1.2h12c0.318 0 0.624-0.126 0.848-0.352s0.352-0.53 0.352-0.848v-24.8c0-0.318-0.126-0.623-0.352-0.849s-0.53-0.351-0.848-0.351v0zM11.598 24.8c0.318-0 0.624 0.126 0.849 0.35s0.352 0.53 0.353 0.848-0.126 0.624-0.35 0.849c-0.225 0.225-0.53 0.352-0.848 0.353l-4 0.006c-0.318 0-0.624-0.126-0.849-0.35s-0.352-0.53-0.353-0.848 0.126-0.624 0.35-0.849c0.225-0.225 0.53-0.352 0.848-0.353l4-0.006z"></path>
</symbol>
</defs>
</svg>
